<mxfile host="app.diagrams.net" modified="2024-01-01T00:00:00.000Z" agent="Claude" etag="VLF_Racer_Control_Corrected" version="22.1.16" type="device">
  <diagram name="VLF_Racer_Control" id="VLF_Racer_Control">
    <mxGraphModel dx="1422" dy="794" grid="1" gridSize="10" guides="1" tooltips="1" connect="1" arrows="1" fold="1" page="1" pageScale="1" pageWidth="1169" pageHeight="827" math="0" shadow="0">
      <root>
        <mxCell id="0"/>
        <mxCell id="1" parent="0"/>
        
        <!-- Title -->
        <mxCell id="title" value="VLF_Racer 제어 구조 다이어그램 (수정판)" style="text;html=1;strokeColor=none;fillColor=none;align=center;verticalAlign=middle;whiteSpace=wrap;rounded=0;fontSize=18;fontStyle=1;fontColor=#2c5282;" vertex="1" parent="1">
          <mxGeometry x="350" y="30" width="400" height="40" as="geometry"/>
        </mxCell>
        
        <!-- Hardware Components -->
        <mxCell id="arduino" value="Arduino Uno&#xa;+ FreeRTOS" style="rounded=1;whiteSpace=wrap;html=1;fillColor=#e3f2fd;strokeColor=#2196f3;strokeWidth=2;fontStyle=1;" vertex="1" parent="1">
          <mxGeometry x="80" y="100" width="120" height="50" as="geometry"/>
        </mxCell>
        
        <mxCell id="camera" value="TSL1401 Camera&#xa;(128 pixels)" style="rounded=1;whiteSpace=wrap;html=1;fillColor=#e3f2fd;strokeColor=#2196f3;strokeWidth=2;" vertex="1" parent="1">
          <mxGeometry x="80" y="180" width="120" height="60" as="geometry"/>
        </mxCell>
        
        <mxCell id="motor" value="DC Motor" style="rounded=1;whiteSpace=wrap;html=1;fillColor=#e3f2fd;strokeColor=#2196f3;strokeWidth=2;" vertex="1" parent="1">
          <mxGeometry x="80" y="270" width="120" height="50" as="geometry"/>
        </mxCell>
        
        <mxCell id="encoder" value="Rotary Encoder&#xa;(Interrupt)" style="rounded=1;whiteSpace=wrap;html=1;fillColor=#e1f5fe;strokeColor=#0288d1;strokeWidth=2;fontStyle=1;" vertex="1" parent="1">
          <mxGeometry x="80" y="340" width="120" height="50" as="geometry"/>
        </mxCell>
        
        <mxCell id="servo" value="Servo Motor&#xa;(Steering)" style="rounded=1;whiteSpace=wrap;html=1;fillColor=#e3f2fd;strokeColor=#2196f3;strokeWidth=2;" vertex="1" parent="1">
          <mxGeometry x="80" y="410" width="120" height="50" as="geometry"/>
        </mxCell>
        
        <!-- FreeRTOS Tasks -->
        <mxCell id="taskCamera" value="TaskCamera (25Hz)&#xa;우선순위: 1&#xa;&#xa;• TSL1401 데이터 읽기&#xa;• 임계값 처리 (threshold)&#xa;• 라인 중심점 계산&#xa;• 조향각 계산 (yaw angle)" style="rounded=1;whiteSpace=wrap;html=1;fillColor=#f3e5f5;strokeColor=#9c27b0;strokeWidth=2;align=left;spacingLeft=8;" vertex="1" parent="1">
          <mxGeometry x="280" y="120" width="180" height="110" as="geometry"/>
        </mxCell>
        
        <mxCell id="taskSerial" value="TaskSerial (10Hz)&#xa;우선순위: 2&#xa;&#xa;• 픽셀 데이터 전송&#xa;• 디버그 출력&#xa;• 시스템 모니터링" style="rounded=1;whiteSpace=wrap;html=1;fillColor=#f3e5f5;strokeColor=#9c27b0;strokeWidth=2;align=left;spacingLeft=8;" vertex="1" parent="1">
          <mxGeometry x="280" y="250" width="180" height="90" as="geometry"/>
        </mxCell>
        
        <mxCell id="taskControl" value="TaskControl (50Hz)&#xa;우선순위: 3 (최고)&#xa;&#xa;• 미션 로직 수행&#xa;• 모터 PWM 제어&#xa;• 서보 조향 제어&#xa;• 미션 상태 관리" style="rounded=1;whiteSpace=wrap;html=1;fillColor=#f3e5f5;strokeColor=#9c27b0;strokeWidth=2;align=left;spacingLeft=8;" vertex="1" parent="1">
          <mxGeometry x="280" y="360" width="180" height="100" as="geometry"/>
        </mxCell>
        
        <!-- Interrupt Service Routine -->
        <mxCell id="encoderISR" value="encoderB()&#xa;인터럽트 서비스 루틴&#xa;&#xa;• 엔코더 펄스 카운트&#xa;• encoderPos 업데이트&#xa;• 실시간 처리" style="rounded=1;whiteSpace=wrap;html=1;fillColor=#ffebee;strokeColor=#f44336;strokeWidth=2;align=left;spacingLeft=8;fontStyle=1;" vertex="1" parent="1">
          <mxGeometry x="280" y="480" width="180" height="90" as="geometry"/>
        </mxCell>
        
        <!-- Data Structures -->
        <mxCell id="pixelData" value="픽셀 데이터&#xa;&#xa;• Pixel[128]&#xa;• PixelBuffer[128]&#xa;• threshold_data[128]" style="rounded=1;whiteSpace=wrap;html=1;fillColor=#e8f5e8;strokeColor=#4caf50;strokeWidth=2;" vertex="1" parent="1">
          <mxGeometry x="540" y="120" width="140" height="90" as="geometry"/>
        </mxCell>
        
        <mxCell id="controlData" value="제어 변수&#xa;&#xa;• vision_steer_angle&#xa;• steering_angle&#xa;• mission_flag" style="rounded=1;whiteSpace=wrap;html=1;fillColor=#e8f5e8;strokeColor=#4caf50;strokeWidth=2;" vertex="1" parent="1">
          <mxGeometry x="540" y="230" width="140" height="80" as="geometry"/>
        </mxCell>
        
        <mxCell id="encoderData" value="엔코더 데이터&#xa;&#xa;• encoderPos&#xa;• 속도 정보&#xa;• 위치 정보" style="rounded=1;whiteSpace=wrap;html=1;fillColor=#e8f5e8;strokeColor=#4caf50;strokeWidth=2;" vertex="1" parent="1">
          <mxGeometry x="540" y="330" width="140" height="80" as="geometry"/>
        </mxCell>
        
        <!-- Mission System -->
        <mxCell id="missions" value="미션 시스템&#xa;&#xa;0: start_stop&#xa;1: lane_control ✓&#xa;2: wall_following&#xa;3: turn90&#xa;4-6: 확장 미션" style="rounded=1;whiteSpace=wrap;html=1;fillColor=#fff8e1;strokeColor=#ffc107;strokeWidth=2;align=left;spacingLeft=8;" vertex="1" parent="1">
          <mxGeometry x="540" y="430" width="140" height="110" as="geometry"/>
        </mxCell>
        
        <!-- Safety Systems -->
        <mxCell id="watchdog" value="Watchdog Timer&#xa;(2초 타임아웃)&#xa;&#xa;• 시스템 안정성&#xa;• 태스크 모니터링" style="rounded=1;whiteSpace=wrap;html=1;fillColor=#fff3e0;strokeColor=#ff9800;strokeWidth=2;" vertex="1" parent="1">
          <mxGeometry x="740" y="100" width="130" height="80" as="geometry"/>
        </mxCell>
        
        <mxCell id="semaphores" value="세마포어&#xa;&#xa;• xSerialSemaphore&#xa;• xDataSemaphore&#xa;• xSteeringSemaphore" style="rounded=1;whiteSpace=wrap;html=1;fillColor=#fff3e0;strokeColor=#ff9800;strokeWidth=2;align=left;spacingLeft=8;" vertex="1" parent="1">
          <mxGeometry x="740" y="200" width="150" height="90" as="geometry"/>
        </mxCell>
        
        <!-- Main Data Flow Connections -->
        <!-- Camera to TaskCamera -->
        <mxCell id="flow1" style="edgeStyle=orthogonalEdgeStyle;rounded=0;orthogonalLoop=1;jettySize=auto;html=1;strokeColor=#1976d2;strokeWidth=3;endArrow=classic;endSize=8;exitX=1;exitY=0.5;exitDx=0;exitDy=0;entryX=0;entryY=0.3;entryDx=0;entryDy=0;" edge="1" parent="1" source="camera" target="taskCamera">
          <mxGeometry relative="1" as="geometry"/>
        </mxCell>
        
        <!-- TaskCamera to PixelData -->
        <mxCell id="flow2" style="edgeStyle=orthogonalEdgeStyle;rounded=0;orthogonalLoop=1;jettySize=auto;html=1;strokeColor=#388e3c;strokeWidth=2;endArrow=classic;endSize=6;exitX=1;exitY=0.3;exitDx=0;exitDy=0;entryX=0;entryY=0.5;entryDx=0;entryDy=0;" edge="1" parent="1" source="taskCamera" target="pixelData">
          <mxGeometry relative="1" as="geometry"/>
        </mxCell>
        
        <!-- TaskCamera to ControlData -->
        <mxCell id="flow3" style="edgeStyle=orthogonalEdgeStyle;rounded=0;orthogonalLoop=1;jettySize=auto;html=1;strokeColor=#388e3c;strokeWidth=2;endArrow=classic;endSize=6;exitX=1;exitY=0.7;exitDx=0;exitDy=0;entryX=0;entryY=0.3;entryDx=0;entryDy=0;" edge="1" parent="1" source="taskCamera" target="controlData">
          <mxGeometry relative="1" as="geometry"/>
        </mxCell>
        
        <!-- PixelData to TaskSerial -->
        <mxCell id="flow4" style="edgeStyle=orthogonalEdgeStyle;rounded=0;orthogonalLoop=1;jettySize=auto;html=1;strokeColor=#7b1fa2;strokeWidth=2;endArrow=classic;endSize=6;exitX=0;exitY=0.8;exitDx=0;exitDy=0;entryX=1;entryY=0.3;entryDx=0;entryDy=0;" edge="1" parent="1" source="pixelData" target="taskSerial">
          <mxGeometry relative="1" as="geometry"/>
        </mxCell>
        
        <!-- ControlData to TaskControl -->
        <mxCell id="flow5" style="edgeStyle=orthogonalEdgeStyle;rounded=0;orthogonalLoop=1;jettySize=auto;html=1;strokeColor=#7b1fa2;strokeWidth=2;endArrow=classic;endSize=6;exitX=0;exitY=0.8;exitDx=0;exitDy=0;entryX=1;entryY=0.3;entryDx=0;entryDy=0;" edge="1" parent="1" source="controlData" target="taskControl">
          <mxGeometry relative="1" as="geometry"/>
        </mxCell>
        
        <!-- EncoderData to TaskControl -->
        <mxCell id="flow6" style="edgeStyle=orthogonalEdgeStyle;rounded=0;orthogonalLoop=1;jettySize=auto;html=1;strokeColor=#ff5722;strokeWidth=2;endArrow=classic;endSize=6;exitX=0;exitY=0.5;exitDx=0;exitDy=0;entryX=1;entryY=0.6;entryDx=0;entryDy=0;" edge="1" parent="1" source="encoderData" target="taskControl">
          <mxGeometry relative="1" as="geometry"/>
        </mxCell>
        
        <!-- TaskControl to Motor -->
        <mxCell id="flow7" style="edgeStyle=orthogonalEdgeStyle;rounded=0;orthogonalLoop=1;jettySize=auto;html=1;strokeColor=#d32f2f;strokeWidth=3;endArrow=classic;endSize=8;exitX=0;exitY=0.3;exitDx=0;exitDy=0;entryX=1;entryY=0.5;entryDx=0;entryDy=0;" edge="1" parent="1" source="taskControl" target="motor">
          <mxGeometry relative="1" as="geometry"/>
        </mxCell>
        
        <!-- TaskControl to Servo -->
        <mxCell id="flow8" style="edgeStyle=orthogonalEdgeStyle;rounded=0;orthogonalLoop=1;jettySize=auto;html=1;strokeColor=#d32f2f;strokeWidth=3;endArrow=classic;endSize=8;exitX=0;exitY=0.7;exitDx=0;exitDy=0;entryX=1;entryY=0.5;entryDx=0;entryDy=0;" edge="1" parent="1" source="taskControl" target="servo">
          <mxGeometry relative="1" as="geometry"/>
        </mxCell>
        
        <!-- Mission to TaskControl -->
        <mxCell id="flow9" style="edgeStyle=orthogonalEdgeStyle;rounded=0;orthogonalLoop=1;jettySize=auto;html=1;strokeColor=#f57c00;strokeWidth=2;endArrow=classic;endSize=6;exitX=0;exitY=0.3;exitDx=0;exitDy=0;entryX=1;entryY=0.9;entryDx=0;entryDy=0;" edge="1" parent="1" source="missions" target="taskControl">
          <mxGeometry relative="1" as="geometry"/>
        </mxCell>
        
        <!-- Encoder Hardware to ISR (Interrupt) -->
        <mxCell id="interrupt1" style="edgeStyle=orthogonalEdgeStyle;rounded=0;orthogonalLoop=1;jettySize=auto;html=1;strokeColor=#f44336;strokeWidth=3;endArrow=classic;endSize=8;exitX=1;exitY=0.5;exitDx=0;exitDy=0;entryX=0;entryY=0.3;entryDx=0;entryDy=0;" edge="1" parent="1" source="encoder" target="encoderISR">
          <mxGeometry relative="1" as="geometry"/>
        </mxCell>
        
        <!-- ISR to EncoderData -->
        <mxCell id="interrupt2" style="edgeStyle=orthogonalEdgeStyle;rounded=0;orthogonalLoop=1;jettySize=auto;html=1;strokeColor=#f44336;strokeWidth=2;endArrow=classic;endSize=6;exitX=1;exitY=0.7;exitDx=0;exitDy=0;entryX=0;entryY=0.8;entryDx=0;entryDy=0;" edge="1" parent="1" source="encoderISR" target="encoderData">
          <mxGeometry relative="1" as="geometry"/>
        </mxCell>
        
        <!-- Safety System Connections -->
        <mxCell id="safety1" style="edgeStyle=orthogonalEdgeStyle;rounded=0;orthogonalLoop=1;jettySize=auto;html=1;strokeColor=#ff9800;strokeWidth=1;endArrow=none;dashed=1;exitX=0;exitY=0.2;exitDx=0;exitDy=0;entryX=1;entryY=0.1;entryDx=0;entryDy=0;" edge="1" parent="1" source="watchdog" target="taskCamera">
          <mxGeometry relative="1" as="geometry"/>
        </mxCell>
        
        <mxCell id="safety2" style="edgeStyle=orthogonalEdgeStyle;rounded=0;orthogonalLoop=1;jettySize=auto;html=1;strokeColor=#ff9800;strokeWidth=1;endArrow=none;dashed=1;exitX=0;exitY=0.5;exitDx=0;exitDy=0;entryX=1;entryY=0.1;entryDx=0;entryDy=0;" edge="1" parent="1" source="watchdog" target="taskSerial">
          <mxGeometry relative="1" as="geometry"/>
        </mxCell>
        
        <mxCell id="safety3" style="edgeStyle=orthogonalEdgeStyle;rounded=0;orthogonalLoop=1;jettySize=auto;html=1;strokeColor=#ff9800;strokeWidth=1;endArrow=none;dashed=1;exitX=0;exitY=0.8;exitDx=0;exitDy=0;entryX=1;entryY=0.1;entryDx=0;entryDy=0;" edge="1" parent="1" source="watchdog" target="taskControl">
          <mxGeometry relative="1" as="geometry"/>
        </mxCell>
        
        <mxCell id="safety4" style="edgeStyle=orthogonalEdgeStyle;rounded=0;orthogonalLoop=1;jettySize=auto;html=1;strokeColor=#ff9800;strokeWidth=1;endArrow=none;dashed=1;exitX=0;exitY=0.3;exitDx=0;exitDy=0;entryX=1;entryY=0.1;entryDx=0;entryDy=0;" edge="1" parent="1" source="semaphores" target="pixelData">
          <mxGeometry relative="1" as="geometry"/>
        </mxCell>
        
        <mxCell id="safety5" style="edgeStyle=orthogonalEdgeStyle;rounded=0;orthogonalLoop=1;jettySize=auto;html=1;strokeColor=#ff9800;strokeWidth=1;endArrow=none;dashed=1;exitX=0;exitY=0.7;exitDx=0;exitDy=0;entryX=1;entryY=0.1;entryDx=0;entryDy=0;" edge="1" parent="1" source="semaphores" target="controlData">
          <mxGeometry relative="1" as="geometry"/>
        </mxCell>
        
        <!-- Data Flow Labels -->
        <mxCell id="label1" value="픽셀 읽기" style="text;html=1;strokeColor=none;fillColor=none;align=center;verticalAlign=middle;whiteSpace=wrap;rounded=0;fontSize=10;fontColor=#1976d2;fontStyle=1;" vertex="1" parent="1">
          <mxGeometry x="215" y="190" width="60" height="20" as="geometry"/>
        </mxCell>
        
        <mxCell id="label2" value="조향각 계산" style="text;html=1;strokeColor=none;fillColor=none;align=center;verticalAlign=middle;whiteSpace=wrap;rounded=0;fontSize=9;fontColor=#388e3c;" vertex="1" parent="1">
          <mxGeometry x="480" y="200" width="55" height="20" as="geometry"/>
        </mxCell>
        
        <mxCell id="label3" value="PWM 제어" style="text;html=1;strokeColor=none;fillColor=none;align=center;verticalAlign=middle;whiteSpace=wrap;rounded=0;fontSize=10;fontColor=#d32f2f;fontStyle=1;" vertex="1" parent="1">
          <mxGeometry x="215" y="280" width="60" height="20" as="geometry"/>
        </mxCell>
        
        <mxCell id="label4" value="조향 제어" style="text;html=1;strokeColor=none;fillColor=none;align=center;verticalAlign=middle;whiteSpace=wrap;rounded=0;fontSize=10;fontColor=#d32f2f;fontStyle=1;" vertex="1" parent="1">
          <mxGeometry x="215" y="420" width="60" height="20" as="geometry"/>
        </mxCell>
        
        <mxCell id="label5" value="인터럽트&#xa;신호" style="text;html=1;strokeColor=none;fillColor=none;align=center;verticalAlign=middle;whiteSpace=wrap;rounded=0;fontSize=10;fontColor=#f44336;fontStyle=1;" vertex="1" parent="1">
          <mxGeometry x="215" y="350" width="50" height="30" as="geometry"/>
        </mxCell>
        
        <mxCell id="label6" value="엔코더&#xa;데이터" style="text;html=1;strokeColor=none;fillColor=none;align=center;verticalAlign=middle;whiteSpace=wrap;rounded=0;fontSize=9;fontColor=#f44336;" vertex="1" parent="1">
          <mxGeometry x="480" y="510" width="50" height="30" as="geometry"/>
        </mxCell>
        
        <mxCell id="label7" value="속도/위치&#xa;피드백" style="text;html=1;strokeColor=none;fillColor=none;align=center;verticalAlign=middle;whiteSpace=wrap;rounded=0;fontSize=9;fontColor=#ff5722;" vertex="1" parent="1">
          <mxGeometry x="480" y="370" width="55" height="30" as="geometry"/>
        </mxCell>
        
        <mxCell id="label8" value="미션 명령" style="text;html=1;strokeColor=none;fillColor=none;align=center;verticalAlign=middle;whiteSpace=wrap;rounded=0;fontSize=10;fontColor=#f57c00;" vertex="1" parent="1">
          <mxGeometry x="480" y="450" width="50" height="20" as="geometry"/>
        </mxCell>
        
        <!-- Legend -->
        <mxCell id="legend_bg" value="" style="rounded=1;whiteSpace=wrap;html=1;fillColor=#f8f9fa;strokeColor=#dee2e6;strokeWidth=1;" vertex="1" parent="1">
          <mxGeometry x="80" y="600" width="800" height="120" as="geometry"/>
        </mxCell>
        
        <mxCell id="legend_title" value="범례 (Legend)" style="text;html=1;strokeColor=none;fillColor=none;align=left;verticalAlign=top;whiteSpace=wrap;rounded=0;fontSize=14;fontStyle=1;" vertex="1" parent="1">
          <mxGeometry x="100" y="610" width="120" height="20" as="geometry"/>
        </mxCell>
        
        <!-- Legend Row 1 -->
        <mxCell id="legend1" value="하드웨어" style="rounded=1;whiteSpace=wrap;html=1;fillColor=#e3f2fd;strokeColor=#2196f3;strokeWidth=2;fontSize=10;" vertex="1" parent="1">
          <mxGeometry x="100" y="640" width="70" height="25" as="geometry"/>
        </mxCell>
        
        <mxCell id="legend2" value="인터럽트 하드웨어" style="rounded=1;whiteSpace=wrap;html=1;fillColor=#e1f5fe;strokeColor=#0288d1;strokeWidth=2;fontSize=9;" vertex="1" parent="1">
          <mxGeometry x="180" y="640" width="90" height="25" as="geometry"/>
        </mxCell>
        
        <mxCell id="legend3" value="FreeRTOS 태스크" style="rounded=1;whiteSpace=wrap;html=1;fillColor=#f3e5f5;strokeColor=#9c27b0;strokeWidth=2;fontSize=10;" vertex="1" parent="1">
          <mxGeometry x="280" y="640" width="90" height="25" as="geometry"/>
        </mxCell>
        
        <mxCell id="legend4" value="인터럽트 서비스" style="rounded=1;whiteSpace=wrap;html=1;fillColor=#ffebee;strokeColor=#f44336;strokeWidth=2;fontSize=9;" vertex="1" parent="1">
          <mxGeometry x="380" y="640" width="80" height="25" as="geometry"/>
        </mxCell>
        
        <mxCell id="legend5" value="데이터 구조" style="rounded=1;whiteSpace=wrap;html=1;fillColor=#e8f5e8;strokeColor=#4caf50;strokeWidth=2;fontSize=10;" vertex="1" parent="1">
          <mxGeometry x="470" y="640" width="70" height="25" as="geometry"/>
        </mxCell>
        
        <mxCell id="legend6" value="안전 시스템" style="rounded=1;whiteSpace=wrap;html=1;fillColor=#fff3e0;strokeColor=#ff9800;strokeWidth=2;fontSize=10;" vertex="1" parent="1">
          <mxGeometry x="550" y="640" width="70" height="25" as="geometry"/>
        </mxCell>
        
        <mxCell id="legend7" value="미션 시스템" style="rounded=1;whiteSpace=wrap;html=1;fillColor=#fff8e1;strokeColor=#ffc107;strokeWidth=2;fontSize=10;" vertex="1" parent="1">
          <mxGeometry x="630" y="640" width="70" height="25" as="geometry"/>
        </mxCell>
        
        <!-- Legend Row 2 - Signal Types -->
        <mxCell id="legend_signals" value="신호 타입:" style="text;html=1;strokeColor=none;fillColor=none;align=left;verticalAlign=middle;whiteSpace=wrap;rounded=0;fontSize=11;fontStyle=1;" vertex="1" parent="1">
          <mxGeometry x="100" y="675" width="70" height="20" as="geometry"/>
        </mxCell>
        
        <mxCell id="legend_line1" value="" style="endArrow=classic;html=1;rounded=0;strokeColor=#1976d2;strokeWidth=3;" edge="1" parent="1">
          <mxGeometry width="50" height="50" relative="1" as="geometry">
            <mxPoint x="180" y="685" as="sourcePoint"/>
            <mxPoint x="220" y="685" as="targetPoint"/>
          </mxGeometry>
        </mxCell>
        <mxCell id="legend_line1_label" value="주요 제어" style="text;html=1;strokeColor=none;fillColor=none;align=center;verticalAlign=middle;whiteSpace=wrap;rounded=0;fontSize=9;" vertex="1" parent="1">
          <mxGeometry x="225" y="675" width="50" height="20" as="geometry"/>
        </mxCell>
        
        <mxCell id="legend_line2" value="" style="endArrow=classic;html=1;rounded=0;strokeColor=#f44336;strokeWidth=3;" edge="1" parent="1">
          <mxGeometry width="50" height="50" relative="1" as="geometry">
            <mxPoint x="290" y="685" as="sourcePoint"/>
            <mxPoint x="330" y="685" as="targetPoint"/>
          </mxGeometry>
        </mxCell>
        <mxCell id="legend_line2_label" value="인터럽트" style="text;html=1;strokeColor=none;fillColor=none;align=center;verticalAlign=middle;whiteSpace=wrap;rounded=0;fontSize=9;" vertex="1" parent="1">
          <mxGeometry x="335" y="675" width="50" height="20" as="geometry"/>
        </mxCell>
        
        <mxCell id="legend_line3" value="" style="endArrow=classic;html=1;rounded=0;strokeColor=#ff5722;strokeWidth=2;" edge="1" parent="1">
          <mxGeometry width="50" height="50" relative="1" as="geometry">
            <mxPoint x="400" y="685" as="sourcePoint"/>
            <mxPoint x="440" y="685" as="targetPoint"/>
          </mxGeometry>
        </mxCell>
        <mxCell id="legend_line3_label" value="피드백" style="text;html=1;strokeColor=none;fillColor=none;align=center;verticalAlign=middle;whiteSpace=wrap;rounded=0;fontSize=9;" vertex="1" parent="1">
          <mxGeometry x="445" y="675" width="40" height="20" as="geometry"/>
        </mxCell>
        
        <mxCell id="legend_line4" value="" style="endArrow=none;html=1;rounded=0;strokeColor=#ff9800;strokeWidth=1;dashed=1;" edge="1" parent="1">
          <mxGeometry width="50" height="50" relative="1" as="geometry">
            <mxPoint x="500" y="685" as="sourcePoint"/>
            <mxPoint x="540" y="685" as="targetPoint"/>
          </mxGeometry>
        </mxCell>
        <mxCell id="legend_line4_label" value="모니터링" style="text;html=1;strokeColor=none;fillColor=none;align=center;verticalAlign=middle;whiteSpace=wrap;rounded=0;fontSize=9;" vertex="1" parent="1">
          <mxGeometry x="545" y="675" width="50" height="20" as="geometry"/>
        </mxCell>
        
      </root>
    </mxGraphModel>
  </diagram>
</mxfile>